Coordinates
version=1
nRows=32
nColumns=12
inDegrees=yes

Units are S.I. units (second, meters, Newtons, ...)
Angles are in degrees

endheader
time	SC_y	SC_z	SC_x	AC_y	AC_z	AC_x	GH_y	GH_z	GH_yy	EL_x	PS_y
       0.0               -30.4         -1.156          46.12          41.66           1.29         -12.57         -23.51          78.99         -145.6          47.39          126.8
   0.02215              -30.41         -1.156          46.12          41.66          1.288         -12.57         -23.53          78.98         -145.6           47.4          126.8
    0.0443              -30.41         -1.156          46.11          41.67          1.285         -12.56         -23.54          78.97         -145.6           47.4          126.8
   0.06644              -30.42         -1.155          46.11          41.67          1.283         -12.56         -23.55          78.96         -145.5           47.4          126.8
   0.08859              -30.42         -1.155          46.11          41.67           1.28         -12.55         -23.57          78.95         -145.5           47.4          126.8
    0.1107              -30.42         -1.155          46.11          41.68          1.278         -12.54         -23.58          78.94         -145.5           47.4          126.8
    0.1329              -30.43         -1.154          46.11          41.68          1.275         -12.54          -23.6          78.93         -145.5           47.4          126.9
     0.155              -30.44         -1.154           46.1          41.69          1.271         -12.53         -23.62          78.91         -145.4           47.4          126.9
    0.1772              -30.44         -1.153           46.1           41.7          1.268         -12.52         -23.63           78.9         -145.4           47.4          126.9
    0.1993              -30.45         -1.152           46.1           41.7          1.264         -12.52         -23.65          78.89         -145.4           47.4          126.9
    0.2215              -30.45         -1.152          46.09          41.71          1.261         -12.51         -23.68          78.87         -145.3           47.4          126.9
    0.2436              -30.46         -1.151          46.09          41.72          1.256          -12.5          -23.7          78.85         -145.3           47.4          126.9
    0.2658              -30.47          -1.15          46.09          41.72          1.252         -12.49         -23.72          78.83         -145.3           47.4          126.9
    0.2879              -30.48          -1.15          46.08          41.73          1.247         -12.48         -23.75          78.81         -145.2           47.4          126.9
    0.3101              -30.49         -1.149          46.08          41.74          1.242         -12.47         -23.78          78.79         -145.2           47.4          126.9
    0.3322               -30.5         -1.148          46.07          41.75          1.236         -12.45         -23.81          78.77         -145.1           47.4          126.9
    0.3544              -30.51         -1.147          46.07          41.76           1.23         -12.44         -23.84          78.74         -145.1           47.4          126.9
    0.3765              -30.52         -1.146          46.06          41.77          1.223         -12.43         -23.88          78.72         -145.0           47.4          126.9
    0.3987              -30.53         -1.145          46.06          41.79          1.216         -12.41         -23.92          78.69         -144.9          47.41          126.9
    0.4208              -30.54         -1.144          46.05           41.8          1.208         -12.39         -23.97          78.65         -144.8          47.41          127.0
     0.443              -30.56         -1.142          46.04          41.81          1.199         -12.37         -24.02          78.62         -144.8          47.41          127.0
    0.4651              -30.58         -1.141          46.04          41.83          1.189         -12.35         -24.07          78.58         -144.7          47.41          127.0
    0.4873              -30.59         -1.139          46.03          41.85          1.178         -12.33         -24.13          78.53         -144.6          47.41          127.0
    0.5094              -30.61         -1.137          46.02          41.87          1.166          -12.3          -24.2          78.49         -144.5          47.41          127.0
    0.5316              -30.64         -1.135          46.01          41.89          1.153         -12.27         -24.27          78.43         -144.3          47.41          127.0
    0.5537              -30.66         -1.133           46.0          41.92          1.138         -12.24         -24.35          78.37         -144.2          47.42          127.1
    0.5758              -30.69          -1.13          45.98          41.95          1.122         -12.21         -24.44           78.3         -144.1          47.42          127.1
     0.598              -30.72         -1.127          45.97          41.98          1.103         -12.16         -24.55          78.23         -143.9          47.42          127.1
    0.6201              -30.76         -1.124          45.95          42.02          1.082         -12.12         -24.66          78.14         -143.7          47.42          127.2
    0.6423               -30.8          -1.12          45.93          42.06          1.058         -12.07          -24.8          78.04         -143.5          47.43          127.2
    0.6644              -30.85         -1.116          45.91           42.1          1.031         -12.01         -24.95          77.93         -143.2          47.43          127.2
    0.6866               -30.9         -1.111          45.88          42.16         0.9993         -11.94         -25.12           77.8         -142.9          47.44          127.3
